# xmcd CD database file
#
# Track frame offsets:
#	150
#	13591
#	27975
#	43218
#	62058
#	77474
#	92146
#	107354
#	122418
#	136530
#	152204
#	172148
#
# Disc length: 2539 seconds
#
# Revision: 0
# Processed by: cddbd v1.4PL0 Copyright (c) Steve Scherf et al.
# Submitted via: CdAid 2001.05.15.01
#
DISCID=8e09e90c
DTITLE=Jennifer Webb - Cloud 10
DYEAR=1900
DGENRE=
TTITLE0=Cloud 10
TTITLE1=Side Effects
TTITLE2=I've Had It
TTITLE3=Hurts Don't It
TTITLE4=Wrong About Me
TTITLE5=It's A Guy Thing
TTITLE6=Never Said Goodbye
TTITLE7=I'll Save You The Trouble
TTITLE8=He's No Angel
TTITLE9=Every Angel In Heaven
TTITLE10=Tears For Souvenirs
TTITLE11=Heaven's Bright Shore
EXTD=
EXTT0=
EXTT1=
EXTT2=
EXTT3=
EXTT4=
EXTT5=
EXTT6=
EXTT7=
EXTT8=
EXTT9=
EXTT10=
EXTT11=
PLAYORDER=
